<?xml version="1.0" encoding="UTF-8"?>
<svg id="Calque_1" data-name="Calque 1" xmlns="http://www.w3.org/2000/svg" viewBox="0 0 549.66 177.61">
  <defs>
    <style>
      .cls-1, .cls-2, .cls-3 {
        fill: #fff;
      }

      .cls-2, .cls-3, .cls-4 {
        stroke: #fff;
        stroke-miterlimit: 10;
      }

      .cls-2, .cls-4 {
        stroke-width: 4px;
      }

      .cls-4 {
        fill: none;
      }
    </style>
  </defs>
  <path class="cls-4" d="m4.18,25.89c33.66.71,68.36-.61,104.68,0l-52.34,87.83L4.18,25.89Z"/>
  <path class="cls-2" d="m56.52,173.72v-60,60Z"/>
  <line class="cls-2" x1="81.52" y1="175.61" x2="31.52" y2="175.61"/>
  <g>
    <path class="cls-3" d="m107.05.26c-14.21,23.18-28.43,46.37-42.64,69.55"/>
    <ellipse class="cls-3" cx="73.46" cy="54.88" rx="9.99" ry="7.72" transform="translate(-11.23 90.04) rotate(-59.31)"/>
  </g>
  <path class="cls-1" d="m38.56,50.86c3.22,0,3.22-5,0-5s-3.22,5,0,5h0Z"/>
  <path class="cls-1" d="m36.69,58.07c2.41,0,2.42-3.75,0-3.75s-2.42,3.75,0,3.75h0Z"/>
  <path class="cls-1" d="m42.1,60.46c1.61,0,1.61-2.5,0-2.5s-1.61,2.5,0,2.5h0Z"/>
  <path class="cls-1" d="m38.01,63.8c.8,0,.81-1.25,0-1.25s-.81,1.25,0,1.25h0Z"/>
  <g>
    <path class="cls-1" d="m103.39,121.23l2.65,3.34,1.53,1.85c2.96,3.65,4.44,7.52,4.44,11.59s-1.31,7.43-3.92,10.41c-3.57,4.09-8.26,6.14-14.04,6.14-4.48,0-8.15-1.38-11.01-4.14-2.86-2.76-4.3-6.29-4.3-10.59,0-5.26,2.23-9.66,6.69-13.17,2.36-1.86,4.55-2.8,6.54-2.8,1.04,0,1.88.3,2.54.89.65.6.98,1.37.98,2.31,0,1.27-.75,2.36-2.25,3.29l-2.31,1.41c-1.33.83-2.43,1.98-3.32,3.46-.88,1.48-1.33,2.94-1.33,4.38,0,2.29.77,4.17,2.32,5.66,1.55,1.49,3.51,2.23,5.9,2.23,2.63,0,4.92-.99,6.86-2.95,1.94-1.97,2.91-4.29,2.91-6.96,0-1.69-.39-3.23-1.18-4.61-.79-1.38-2.49-3.53-5.1-6.43-1.83-2.02-3.13-3.79-3.92-5.3h-7.78c-2.65,0-3.98-.91-3.98-2.74,0-1.33.47-2.35,1.4-3.07.93-.72,2.24-1.08,3.94-1.08h4.93c.38-3.81,2.12-6.95,5.22-9.44,3.09-2.49,6.8-3.73,11.13-3.73,3.25,0,5.9.89,7.94,2.68s3.07,4.1,3.07,6.95c0,3.79-1.62,6.69-4.87,8.71-1.85,1.15-4.78,1.73-8.79,1.73h-2.88Zm-3.46-6.89h6.92c3.9,0,5.85-1.13,5.85-3.4,0-.88-.4-1.59-1.2-2.13-.8-.54-1.86-.81-3.19-.81-2.08,0-3.96.65-5.66,1.93-1.7,1.29-2.61,2.76-2.72,4.41Z"/>
    <path class="cls-1" d="m124.44,132.47c0,1.44,1.09,2.16,3.26,2.16h8.56c2.42,0,3.63.86,3.63,2.57,0,1.17-.43,2.09-1.28,2.74-.86.65-2.05.98-3.59.98h-8.16c-3.04,0-5.35-.75-6.93-2.25s-2.38-3.69-2.38-6.57c0-3.71,1.25-6.91,3.76-9.6,2.51-2.69,5.49-4.04,8.95-4.04,2.52,0,4.54.66,6.07,1.97,1.53,1.32,2.29,3.05,2.29,5.2,0,2.59-1.06,4.52-3.17,5.77-1.17.71-2.92,1.07-5.25,1.07h-5.77Zm1.38-5.25h3.17c2.06,0,3.06-.45,3-1.35-.06-1.02-.72-1.53-1.99-1.53-1.77,0-3.16.96-4.18,2.88Z"/>
    <path class="cls-1" d="m160.68,134.63h3.17c2.42,0,3.63.85,3.63,2.54,0,1.17-.43,2.09-1.3,2.75s-2.06.99-3.57.99h-3.69c-1.65,0-2.78-.64-3.37-1.93-1.44,1.29-2.84,1.93-4.18,1.93h-3.29c-2.11,0-3.82-.75-5.12-2.26-1.3-1.51-1.95-3.48-1.95-5.92,0-3.69,1.27-6.99,3.82-9.9,2.55-2.91,5.42-4.37,8.63-4.37,2.46,0,4.26.86,5.39,2.57.96-1.44,2.22-2.16,3.78-2.16.85,0,1.55.27,2.12.81.57.54.85,1.2.85,1.99,0,.54-.15,1.18-.46,1.93l-.32.78-4.15,10.26Zm-10.46.14h.72c1.58,0,2.62-.64,3.14-1.93l2.02-4.99c.27-.65.4-1.2.4-1.64,0-.52-.25-.97-.76-1.35-.51-.38-1.12-.58-1.83-.58-1.4,0-2.77.82-4.09,2.45-1.33,1.63-1.99,3.33-1.99,5.07,0,1.98.8,2.97,2.39,2.97Z"/>
    <path class="cls-1" d="m175.78,125.17l-.98,2.42c-.88,2.15-2.04,3.23-3.46,3.23-.86,0-1.59-.26-2.16-.78s-.86-1.16-.86-1.93c0-.44.21-1.19.63-2.25l3.26-8.04c.79-1.94,1.9-2.91,3.34-2.91s2.29.67,2.62,2.02l.23.89c.12.46.29.75.52.86s.8.17,1.7.17h6.75c2.52,0,3.78.88,3.78,2.65,0,2.44-1.6,3.66-4.79,3.66l-.32.29c-3.06,2.92-4.58,5.18-4.58,6.77s.88,2.39,2.65,2.39h3.63c2.44,0,3.66.85,3.66,2.54,0,1.19-.43,2.12-1.28,2.77-.85.65-2.05.98-3.59.98h-5.65c-1.92,0-3.49-.66-4.71-1.99-1.22-1.33-1.83-3.05-1.83-5.16,0-1.34.33-2.65.98-3.92.65-1.27,1.8-2.83,3.46-4.67h-3Z"/>
    <path class="cls-1" d="m209.19,140.92h-8.36c-2.4,0-4.36-.85-5.87-2.54-1.51-1.69-2.26-3.88-2.26-6.57,0-3.59,1.24-6.72,3.72-9.37s5.39-3.98,8.74-3.98c2.27,0,4.11.63,5.54,1.9,1.42,1.27,2.13,2.92,2.13,4.96,0,1.42-.36,2.59-1.07,3.5-.71.91-1.63,1.37-2.74,1.37-1.77,0-2.65-.83-2.65-2.48v-.63c.02-.21.03-.41.03-.61,0-1.34-.66-2.02-1.99-2.02-1.25,0-2.39.66-3.42,1.99-1.03,1.33-1.54,2.81-1.54,4.44,0,1.37.42,2.33,1.25,2.9.84.57,2.25.85,4.25.85h5.45c2.44,0,3.66.86,3.66,2.57,0,1.15-.44,2.06-1.31,2.72-.88.66-2.06.99-3.56.99Z"/>
    <path class="cls-1" d="m229,120.1c2.02-1.1,3.68-1.64,4.99-1.64,1.85,0,3.36.52,4.54,1.54,1.18,1.03,1.77,2.34,1.77,3.94,0,.96-.23,2.01-.69,3.14l-3.03,7.55h3.32c2.42,0,3.63.86,3.63,2.57,0,1.17-.43,2.09-1.28,2.74-.86.65-2.05.98-3.59.98h-5.79c-1.23,0-2.26-.35-3.1-1.05-.84-.7-1.25-1.56-1.25-2.58,0-.69.22-1.57.66-2.65l2.65-6.52c.33-.83.49-1.45.49-1.87,0-1.1-.73-1.64-2.19-1.64-1.96,0-3.61,1.67-4.96,5.02l-3.23,7.93c-1.02,2.52-2.53,3.78-4.53,3.78-.79,0-1.46-.25-2.02-.75-.56-.5-.84-1.1-.84-1.82,0-.54.14-1.17.43-1.9l.32-.78,12.54-30.93c1.1-2.65,2.59-3.98,4.5-3.98.79,0,1.46.26,2.03.79.57.53.85,1.17.85,1.92,0,.62-.25,1.53-.75,2.74l-5.48,13.49Z"/>
    <path class="cls-1" d="m310.38,134.03h4.67c2.67,0,4.01.91,4.01,2.74,0,1.31-.47,2.33-1.4,3.06-.93.73-2.25,1.1-3.94,1.1h-5.48c-2,0-3.54-.42-4.63-1.25-1.09-.84-1.63-2.03-1.63-3.59,0-1,.4-2.46,1.21-4.38l7.41-17.36-5.56,5.97c-1.33,1.44-2.59,2.16-3.78,2.16-1.56,0-2.57-1.07-3.03-3.2l-.81-3.57-7.03,17.36c-2.42,5.96-4.27,10.01-5.54,12.15s-2.91,4-4.93,5.58c-2.92,2.27-6.28,3.4-10.06,3.4-4.04,0-7.31-1.27-9.83-3.82-2.52-2.55-3.78-5.87-3.78-9.96,0-5.36,1.98-10.08,5.94-14.16,2.13-2.17,4.79-3.92,7.99-5.26,3.19-1.34,6.33-2,9.43-2,1.57,0,2.83.34,3.78,1.01.94.67,1.41,1.57,1.41,2.68,0,1.17-.5,2.12-1.5,2.85-.58.42-1.69.71-3.34.86-3.83.35-6.91,1.22-9.25,2.62-1.94,1.17-3.48,2.7-4.63,4.58-1.14,1.88-1.72,3.85-1.72,5.91,0,2.19.56,3.92,1.67,5.17,1.11,1.26,2.64,1.89,4.58,1.89,2.32,0,4.35-.99,6.07-2.98,1.72-1.99,3.61-5.5,5.66-10.54l11.45-28.17c1-2.48,2.34-3.72,4.04-3.72,1.08,0,1.93.35,2.55,1.04.62.69,1.17,1.9,1.63,3.63l1.76,6.63,8.65-8.5c1.9-1.86,3.68-2.8,5.33-2.8,1.15,0,2.13.35,2.93,1.05.8.7,1.2,1.55,1.2,2.55,0,.63-.15,1.33-.46,2.08l-.66,1.61-10.38,25.57Z"/>
    <path class="cls-1" d="m338.69,142.1h3.34c2.44,0,3.66.86,3.66,2.57,0,1.17-.43,2.08-1.28,2.74-.86.65-2.05.98-3.59.98h-4.67c-.56,1.65-1.57,3.84-3.03,6.57-2.54,4.81-6.23,7.21-11.07,7.21-2.94,0-5.41-.92-7.41-2.77-2-1.85-3-4.13-3-6.86,0-1.9.54-3.68,1.63-5.32,1.09-1.64,2.51-2.88,4.28-3.7,2.04-.94,5.05-1.41,9.02-1.41h4.7l.84-2.08c-1.42.6-2.73.89-3.92.89-2.06,0-3.72-.52-5-1.57-1.28-1.05-1.92-2.41-1.92-4.08,0-1.02.41-2.55,1.24-4.58l3.14-7.76.32-.81c.92-2.17,2.35-3.26,4.3-3.26.85,0,1.55.27,2.12.81.57.54.85,1.22.85,2.05,0,.56-.25,1.46-.75,2.71l-2.83,6.89c-.44,1.12-.67,1.84-.69,2.16-.06.94.54,1.41,1.79,1.41.88,0,1.79-.26,2.71-.78s1.51-1.1,1.76-1.76l3.86-9.43.29-.81c.9-2.17,2.34-3.26,4.3-3.26.85,0,1.55.27,2.12.82.57.55.85,1.23.85,2.03,0,.56-.14,1.2-.43,1.93l-.35.78-7.18,17.67Zm-9.43,6.28h-4.04c-4.42,0-6.63,1.38-6.63,4.15,0,.98.3,1.77.91,2.36s1.42.89,2.44.89c1.4,0,2.65-.55,3.73-1.64,1.08-1.1,2.28-3.02,3.59-5.77Z"/>
    <path class="cls-1" d="m376.95,121.23c-2.59,4.61-3.89,8.89-3.89,12.83,0,2.81.64,4.81,1.92,6.03,1.28,1.21,3.41,1.82,6.39,1.82h16.03c2.65,0,3.98.9,3.98,2.71,0,1.31-.47,2.33-1.4,3.07-.93.74-2.25,1.11-3.94,1.11h-16.72c-2.79,0-5.02-.38-6.69-1.15-2.33-1.08-4.15-2.73-5.48-4.97-1.33-2.24-1.99-4.79-1.99-7.65,0-3.84,1.17-8.44,3.52-13.78h-2.36c-2.15,0-3.23-.92-3.23-2.77,0-1.15.44-2.13,1.33-2.93.88-.8,1.96-1.2,3.23-1.2h4.96c1.73-2.88,4.05-5.66,6.98-8.33,3.73-3.36,7.76-5.05,12.08-5.05,2.84,0,5.2.88,7.06,2.62,1.86,1.75,2.8,3.98,2.8,6.69,0,3.86-1.8,6.82-5.39,8.88-2.44,1.38-6.32,2.08-11.65,2.08h-7.52Zm4.3-6.89h5.59c4.79,0,7.18-1.28,7.18-3.83,0-.81-.31-1.46-.94-1.97-.63-.51-1.42-.76-2.38-.76-1.48,0-3.08.6-4.79,1.79-1.71,1.19-3.27,2.79-4.67,4.79Z"/>
    <path class="cls-1" d="m409.67,118.46c2.79,0,5.08.88,6.88,2.65,1.8,1.77,2.7,4.02,2.7,6.75,0,2.06-.47,4.1-1.41,6.13-.94,2.03-2.16,3.65-3.66,4.86-1,.79-2.03,1.33-3.1,1.63-1.07.3-2.56.45-4.48.45-3.13,0-5.25-.37-6.34-1.12-2.58-1.77-3.86-4.38-3.86-7.84,0-3.65,1.32-6.81,3.95-9.48,2.63-2.67,5.75-4.01,9.34-4.01Zm-.69,6.14c-1.42,0-2.72.7-3.89,2.1-1.17,1.4-1.76,2.95-1.76,4.64,0,2.23,1.25,3.34,3.75,3.34,1.46,0,2.58-.45,3.37-1.35,1.31-1.48,1.96-3.17,1.96-5.07,0-1.1-.32-1.98-.95-2.65-.63-.67-1.46-1.01-2.48-1.01Z"/>
    <path class="cls-1" d="m437.29,140.92h-8.36c-2.4,0-4.36-.85-5.87-2.54-1.51-1.69-2.26-3.88-2.26-6.57,0-3.59,1.24-6.72,3.72-9.37s5.39-3.98,8.74-3.98c2.27,0,4.11.63,5.54,1.9,1.42,1.27,2.13,2.92,2.13,4.96,0,1.42-.36,2.59-1.07,3.5-.71.91-1.63,1.37-2.74,1.37-1.77,0-2.65-.83-2.65-2.48v-.63c.02-.21.03-.41.03-.61,0-1.34-.66-2.02-1.99-2.02-1.25,0-2.39.66-3.42,1.99-1.03,1.33-1.54,2.81-1.54,4.44,0,1.37.42,2.33,1.25,2.9.84.57,2.25.85,4.25.85h5.45c2.44,0,3.66.86,3.66,2.57,0,1.15-.44,2.06-1.31,2.72-.88.66-2.06.99-3.56.99Z"/>
    <path class="cls-1" d="m460.81,128.72l4.47,7.01c.56.86.84,1.58.84,2.13,0,.88-.37,1.68-1.11,2.39-.74.71-1.57,1.07-2.49,1.07-.81,0-1.51-.43-2.1-1.3l-.35-.52-6.69-10-3.23,7.99c-1.04,2.56-2.56,3.83-4.55,3.83-.83,0-1.52-.25-2.09-.76-.57-.51-.85-1.13-.85-1.86,0-.56.15-1.2.46-1.93l.32-.78,12.34-30.41.32-.78c.88-2.15,2.3-3.23,4.24-3.23.81,0,1.5.27,2.08.81.58.54.86,1.18.86,1.93,0,.58-.15,1.24-.46,1.99l-.32.78-7.35,18.1,6.49-4.81c1.34-1,2.5-1.5,3.46-1.5.81,0,1.48.26,2.02.78.54.52.81,1.16.81,1.93,0,1.29-.71,2.46-2.13,3.52l-.66.49-4.3,3.14Z"/>
    <path class="cls-1" d="m483.04,118.86h.89c2.44,0,3.66.86,3.66,2.57,0,1.17-.43,2.09-1.3,2.74-.86.65-2.06.98-3.57.98h-2.1l-3.86,9.48h3.23c2.44,0,3.66.86,3.66,2.57,0,1.17-.43,2.09-1.28,2.74-.86.65-2.05.98-3.59.98h-5.16c-1.46,0-2.62-.34-3.47-1.01-.86-.67-1.28-1.59-1.28-2.74,0-.71.17-1.5.52-2.36l.55-1.27,3.4-8.39h-.43c-2.15,0-3.23-.84-3.23-2.51,0-1.19.43-2.12,1.28-2.78.85-.66,2.05-.99,3.59-.99h1.33l1.53-3.78.32-.78c.9-2.13,2.32-3.2,4.27-3.2.79,0,1.46.26,2.03.79.57.53.85,1.17.85,1.92s-.25,1.65-.75,2.77l-1.07,2.28Z"/>
    <path class="cls-1" d="m506.08,134.63h3.17c2.42,0,3.63.85,3.63,2.54,0,1.17-.43,2.09-1.3,2.75s-2.06.99-3.57.99h-3.69c-1.65,0-2.78-.64-3.37-1.93-1.44,1.29-2.84,1.93-4.18,1.93h-3.29c-2.12,0-3.82-.75-5.12-2.26-1.3-1.51-1.95-3.48-1.95-5.92,0-3.69,1.27-6.99,3.82-9.9,2.55-2.91,5.42-4.37,8.63-4.37,2.46,0,4.26.86,5.39,2.57.96-1.44,2.22-2.16,3.78-2.16.85,0,1.55.27,2.12.81.57.54.85,1.2.85,1.99,0,.54-.15,1.18-.46,1.93l-.32.78-4.15,10.26Zm-10.46.14h.72c1.57,0,2.62-.64,3.14-1.93l2.02-4.99c.27-.65.4-1.2.4-1.64,0-.52-.26-.97-.76-1.35-.51-.38-1.12-.58-1.83-.58-1.4,0-2.77.82-4.09,2.45-1.33,1.63-1.99,3.33-1.99,5.07,0,1.98.8,2.97,2.39,2.97Z"/>
    <path class="cls-1" d="m521.99,134.63h3.26c2.42,0,3.63.86,3.63,2.57,0,1.17-.43,2.09-1.28,2.74-.86.65-2.05.98-3.59.98h-4.58c-1.69,0-3.02-.35-3.99-1.04-.97-.69-1.46-1.63-1.46-2.83,0-.63.2-1.44.61-2.42l4.76-11.7.32-.81c.88-2.17,2.31-3.26,4.27-3.26.81,0,1.5.27,2.09.81.59.54.88,1.18.88,1.93,0,.62-.26,1.56-.78,2.83l-4.12,10.21Zm3.81-24.97c1.11,0,2.06.39,2.84,1.17s1.17,1.73,1.17,2.84-.39,2.06-1.17,2.84-1.73,1.17-2.84,1.17-2.06-.39-2.84-1.17-1.17-1.72-1.17-2.84.39-2.06,1.17-2.84,1.72-1.17,2.84-1.17Z"/>
    <path class="cls-1" d="m537.7,134.63h3.03c2.44,0,3.66.86,3.66,2.57,0,1.17-.43,2.09-1.28,2.74-.86.65-2.05.98-3.59.98h-5.19c-1.42,0-2.55-.34-3.37-1.01-.83-.67-1.24-1.57-1.24-2.71,0-.59.28-1.59.84-2.97l11.65-28.66.32-.78c.88-2.15,2.3-3.23,4.24-3.23.81,0,1.49.27,2.06.81.57.54.85,1.18.85,1.93,0,.58-.14,1.23-.43,1.96l-.32.78-11.21,27.59Z"/>
  </g>
</svg>