<?xml version="1.0" encoding="UTF-8"?>
<svg id="Calque_1" data-name="Calque 1" xmlns="http://www.w3.org/2000/svg" viewBox="0 0 255.23 221.51">
  <defs>
    <style>
      .cls-1, .cls-2, .cls-3 {
        fill: #fff;
      }

      .cls-2, .cls-3, .cls-4 {
        stroke: #fff;
        stroke-miterlimit: 10;
      }

      .cls-2, .cls-4 {
        stroke-width: 4px;
      }

      .cls-4 {
        fill: none;
      }
    </style>
  </defs>
  <path class="cls-4" d="m75.28,25.89c33.66.71,68.36-.61,104.68,0l-52.34,87.83L75.28,25.89Z"/>
  <path class="cls-2" d="m127.62,173.72v-60,60Z"/>
  <line class="cls-2" x1="152.62" y1="175.61" x2="102.62" y2="175.61"/>
  <g>
    <path class="cls-3" d="m178.14.26c-14.21,23.18-28.43,46.37-42.64,69.55"/>
    <ellipse class="cls-3" cx="144.55" cy="54.88" rx="9.99" ry="7.72" transform="translate(23.58 151.18) rotate(-59.31)"/>
  </g>
  <path class="cls-1" d="m109.66,50.86c3.22,0,3.22-5,0-5s-3.22,5,0,5h0Z"/>
  <path class="cls-1" d="m107.79,58.07c2.41,0,2.42-3.75,0-3.75s-2.42,3.75,0,3.75h0Z"/>
  <path class="cls-1" d="m113.19,60.46c1.61,0,1.61-2.5,0-2.5s-1.61,2.5,0,2.5h0Z"/>
  <path class="cls-1" d="m109.11,63.8c.8,0,.81-1.25,0-1.25s-.81,1.25,0,1.25h0Z"/>
  <g>
    <path class="cls-1" d="m13.36,199.32l1.44,1.81.83,1c1.6,1.98,2.41,4.07,2.41,6.28s-.71,4.03-2.12,5.64c-1.94,2.22-4.47,3.33-7.61,3.33-2.43,0-4.42-.75-5.97-2.24-1.55-1.5-2.33-3.41-2.33-5.74,0-2.85,1.21-5.23,3.62-7.14,1.28-1.01,2.46-1.52,3.55-1.52.56,0,1.02.16,1.38.48.35.32.53.74.53,1.25,0,.69-.41,1.28-1.22,1.78l-1.25.77c-.72.45-1.32,1.07-1.8,1.88-.48.8-.72,1.59-.72,2.38,0,1.24.42,2.26,1.26,3.07.84.81,1.9,1.21,3.2,1.21,1.43,0,2.67-.53,3.72-1.6,1.05-1.07,1.58-2.33,1.58-3.77,0-.92-.21-1.75-.64-2.5-.43-.75-1.35-1.91-2.77-3.48-.99-1.09-1.7-2.05-2.12-2.88h-4.22c-1.44,0-2.16-.49-2.16-1.48,0-.72.25-1.27.76-1.66.5-.39,1.22-.59,2.13-.59h2.67c.21-2.06,1.15-3.77,2.83-5.12,1.68-1.35,3.69-2.02,6.03-2.02,1.76,0,3.2.48,4.3,1.45s1.66,2.22,1.66,3.77c0,2.05-.88,3.62-2.64,4.72-1,.62-2.59.94-4.77.94h-1.56Zm-1.88-3.73h3.75c2.11,0,3.17-.61,3.17-1.84,0-.48-.22-.86-.65-1.16-.43-.29-1.01-.44-1.73-.44-1.12,0-2.15.35-3.07,1.05-.92.7-1.41,1.5-1.48,2.39Z"/>
    <path class="cls-1" d="m24.77,205.42c0,.78.59,1.17,1.77,1.17h4.64c1.31,0,1.97.46,1.97,1.39,0,.64-.23,1.13-.7,1.48-.46.35-1.11.53-1.95.53h-4.42c-1.65,0-2.9-.41-3.76-1.22s-1.29-2-1.29-3.56c0-2.01.68-3.74,2.04-5.2,1.36-1.46,2.98-2.19,4.85-2.19,1.36,0,2.46.36,3.29,1.07.83.71,1.24,1.65,1.24,2.82,0,1.41-.57,2.45-1.72,3.12-.64.39-1.58.58-2.84.58h-3.12Zm.75-2.84h1.72c1.11,0,1.66-.24,1.62-.73-.03-.55-.39-.83-1.08-.83-.96,0-1.71.52-2.27,1.56Z"/>
    <path class="cls-1" d="m44.41,206.59h1.72c1.31,0,1.97.46,1.97,1.38,0,.64-.23,1.13-.7,1.49s-1.11.54-1.94.54h-2c-.9,0-1.51-.35-1.83-1.05-.78.7-1.54,1.05-2.27,1.05h-1.78c-1.15,0-2.07-.41-2.77-1.23-.7-.82-1.05-1.89-1.05-3.21,0-2,.69-3.79,2.07-5.37,1.38-1.58,2.94-2.37,4.68-2.37,1.33,0,2.31.46,2.92,1.39.52-.78,1.2-1.17,2.05-1.17.46,0,.84.15,1.15.44.31.29.46.65.46,1.08,0,.29-.08.64-.25,1.05l-.17.42-2.25,5.56Zm-5.67.08h.39c.85,0,1.42-.35,1.7-1.05l1.09-2.7c.15-.35.22-.65.22-.89,0-.28-.14-.53-.41-.73-.28-.21-.61-.31-.99-.31-.76,0-1.5.44-2.22,1.33-.72.89-1.08,1.8-1.08,2.75,0,1.07.43,1.61,1.3,1.61Z"/>
    <path class="cls-1" d="m52.59,201.46l-.53,1.31c-.48,1.17-1.1,1.75-1.88,1.75-.47,0-.86-.14-1.17-.42s-.47-.63-.47-1.05c0-.24.11-.65.34-1.22l1.77-4.36c.43-1.05,1.03-1.58,1.81-1.58s1.24.37,1.42,1.09l.12.48c.06.25.16.41.28.47s.43.09.92.09h3.66c1.37,0,2.05.48,2.05,1.44,0,1.32-.87,1.98-2.59,1.98l-.17.16c-1.66,1.58-2.48,2.81-2.48,3.67s.48,1.3,1.44,1.3h1.97c1.32,0,1.98.46,1.98,1.38,0,.65-.23,1.15-.7,1.5-.46.35-1.11.53-1.95.53h-3.06c-1.04,0-1.89-.36-2.55-1.08-.66-.72-.99-1.65-.99-2.8,0-.73.18-1.44.53-2.12.35-.69.98-1.53,1.87-2.53h-1.62Z"/>
    <path class="cls-1" d="m70.7,210h-4.53c-1.3,0-2.36-.46-3.18-1.38-.82-.92-1.23-2.1-1.23-3.56,0-1.95.67-3.64,2.02-5.08s2.92-2.16,4.73-2.16c1.23,0,2.23.34,3,1.03.77.69,1.16,1.58,1.16,2.69,0,.77-.19,1.4-.58,1.9-.39.5-.88.74-1.48.74-.96,0-1.44-.45-1.44-1.34v-.34c0-.11.02-.22.02-.33,0-.73-.36-1.09-1.08-1.09-.68,0-1.29.36-1.85,1.08-.56.72-.84,1.52-.84,2.41,0,.74.23,1.26.68,1.57.45.31,1.22.46,2.3.46h2.95c1.32,0,1.98.46,1.98,1.39,0,.62-.24,1.12-.71,1.48-.47.36-1.12.54-1.93.54Z"/>
    <path class="cls-1" d="m81.44,198.71c1.09-.59,1.99-.89,2.7-.89,1,0,1.82.28,2.46.84.64.56.96,1.27.96,2.13,0,.52-.12,1.09-.38,1.7l-1.64,4.09h1.8c1.31,0,1.97.46,1.97,1.39,0,.64-.23,1.13-.7,1.48-.46.35-1.11.53-1.95.53h-3.14c-.67,0-1.23-.19-1.68-.57-.45-.38-.68-.85-.68-1.4,0-.38.12-.85.36-1.44l1.44-3.53c.18-.45.27-.79.27-1.02,0-.59-.4-.89-1.19-.89-1.06,0-1.96.91-2.69,2.72l-1.75,4.3c-.55,1.37-1.37,2.05-2.45,2.05-.43,0-.79-.14-1.09-.41-.3-.27-.45-.6-.45-.98,0-.29.08-.63.23-1.03l.17-.42,6.8-16.77c.59-1.44,1.41-2.16,2.44-2.16.43,0,.79.14,1.1.43.31.29.46.63.46,1.04,0,.33-.14.83-.41,1.48l-2.97,7.31Z"/>
    <path class="cls-1" d="m125.55,206.26h2.53c1.45,0,2.17.5,2.17,1.48,0,.71-.25,1.26-.76,1.66-.51.4-1.22.59-2.13.59h-2.97c-1.08,0-1.92-.23-2.51-.68-.59-.45-.88-1.1-.88-1.95,0-.54.22-1.33.66-2.38l4.02-9.41-3.02,3.23c-.72.78-1.4,1.17-2.05,1.17-.84,0-1.39-.58-1.64-1.73l-.44-1.94-3.81,9.41c-1.31,3.23-2.31,5.42-3,6.59s-1.58,2.17-2.67,3.02c-1.58,1.23-3.4,1.84-5.45,1.84-2.19,0-3.96-.69-5.33-2.07-1.37-1.38-2.05-3.18-2.05-5.4,0-2.91,1.07-5.46,3.22-7.67,1.16-1.18,2.6-2.13,4.33-2.85,1.73-.72,3.43-1.09,5.11-1.09.85,0,1.54.18,2.05.55.51.37.77.85.77,1.45,0,.64-.27,1.15-.81,1.55-.31.23-.92.39-1.81.47-2.07.19-3.75.66-5.02,1.42-1.05.64-1.89,1.46-2.51,2.48-.62,1.02-.93,2.09-.93,3.2,0,1.19.3,2.12.91,2.8.6.68,1.43,1.02,2.48,1.02,1.26,0,2.36-.54,3.29-1.62.93-1.08,1.96-2.98,3.07-5.71l6.2-15.27c.54-1.34,1.27-2.02,2.19-2.02.58,0,1.04.19,1.38.56.34.38.63,1.03.88,1.97l.95,3.59,4.69-4.61c1.03-1.01,1.99-1.52,2.89-1.52.62,0,1.15.19,1.59.57.43.38.65.84.65,1.38,0,.34-.08.72-.25,1.12l-.36.88-5.62,13.86Z"/>
    <path class="cls-1" d="m140.89,210.64h1.81c1.32,0,1.98.46,1.98,1.39,0,.64-.23,1.13-.7,1.48-.46.35-1.11.53-1.95.53h-2.53c-.3.9-.85,2.08-1.64,3.56-1.38,2.6-3.38,3.91-6,3.91-1.59,0-2.93-.5-4.02-1.5-1.08-1-1.62-2.24-1.62-3.72,0-1.03.29-1.99.88-2.88.59-.89,1.36-1.56,2.32-2.01,1.1-.51,2.73-.77,4.89-.77h2.55l.45-1.12c-.77.32-1.48.48-2.12.48-1.12,0-2.02-.28-2.71-.85-.69-.57-1.04-1.3-1.04-2.21,0-.55.22-1.38.67-2.48l1.7-4.2.17-.44c.5-1.18,1.28-1.77,2.33-1.77.46,0,.84.15,1.15.44.31.29.46.66.46,1.11,0,.3-.14.79-.41,1.47l-1.53,3.73c-.24.6-.37,1-.38,1.17-.03.51.29.77.97.77.48,0,.97-.14,1.47-.42s.82-.6.95-.95l2.09-5.11.16-.44c.49-1.18,1.27-1.77,2.33-1.77.46,0,.84.15,1.15.45.31.3.46.66.46,1.1,0,.3-.08.65-.23,1.05l-.19.42-3.89,9.58Zm-5.11,3.41h-2.19c-2.4,0-3.59.75-3.59,2.25,0,.53.16.96.49,1.28s.77.48,1.32.48c.76,0,1.43-.3,2.02-.89.59-.59,1.24-1.64,1.95-3.12Z"/>
    <path class="cls-1" d="m161.62,199.32c-1.41,2.5-2.11,4.82-2.11,6.95,0,1.52.35,2.61,1.04,3.27.69.66,1.85.98,3.46.98h8.69c1.44,0,2.16.49,2.16,1.47,0,.71-.25,1.26-.76,1.66-.51.4-1.22.6-2.13.6h-9.06c-1.51,0-2.72-.21-3.62-.62-1.26-.58-2.25-1.48-2.97-2.7-.72-1.21-1.08-2.6-1.08-4.15,0-2.08.63-4.57,1.91-7.47h-1.28c-1.17,0-1.75-.5-1.75-1.5,0-.62.24-1.15.72-1.59.48-.43,1.06-.65,1.75-.65h2.69c.94-1.56,2.2-3.07,3.78-4.52,2.02-1.82,4.2-2.73,6.55-2.73,1.54,0,2.82.47,3.83,1.42,1.01.95,1.52,2.16,1.52,3.62,0,2.09-.97,3.7-2.92,4.81-1.32.75-3.43,1.12-6.31,1.12h-4.08Zm2.33-3.73h3.03c2.59,0,3.89-.69,3.89-2.08,0-.44-.17-.79-.51-1.07-.34-.28-.77-.41-1.29-.41-.8,0-1.67.32-2.59.97-.93.65-1.77,1.51-2.53,2.59Z"/>
    <path class="cls-1" d="m179.36,197.82c1.51,0,2.75.48,3.73,1.44.97.96,1.46,2.18,1.46,3.66,0,1.12-.26,2.22-.77,3.32-.51,1.1-1.17,1.98-1.98,2.63-.54.43-1.1.72-1.68.88-.58.16-1.39.24-2.43.24-1.7,0-2.84-.2-3.44-.61-1.4-.96-2.09-2.38-2.09-4.25,0-1.98.71-3.69,2.14-5.14,1.43-1.45,3.11-2.17,5.06-2.17Zm-.38,3.33c-.77,0-1.47.38-2.11,1.14-.64.76-.95,1.6-.95,2.52,0,1.21.68,1.81,2.03,1.81.79,0,1.4-.24,1.83-.73.71-.8,1.06-1.72,1.06-2.75,0-.59-.17-1.07-.52-1.44-.34-.36-.79-.55-1.34-.55Z"/>
    <path class="cls-1" d="m194.33,210h-4.53c-1.3,0-2.36-.46-3.18-1.38-.82-.92-1.23-2.1-1.23-3.56,0-1.95.67-3.64,2.02-5.08s2.92-2.16,4.73-2.16c1.23,0,2.23.34,3,1.03.77.69,1.16,1.58,1.16,2.69,0,.77-.19,1.4-.58,1.9-.39.5-.88.74-1.48.74-.96,0-1.44-.45-1.44-1.34v-.34c0-.11.02-.22.02-.33,0-.73-.36-1.09-1.08-1.09-.68,0-1.29.36-1.85,1.08-.56.72-.84,1.52-.84,2.41,0,.74.23,1.26.68,1.57.45.31,1.22.46,2.3.46h2.95c1.32,0,1.98.46,1.98,1.39,0,.62-.24,1.12-.71,1.48-.47.36-1.12.54-1.93.54Z"/>
    <path class="cls-1" d="m207.08,203.39l2.42,3.8c.3.47.45.85.45,1.16,0,.48-.2.91-.6,1.3-.4.39-.85.58-1.35.58-.44,0-.82-.23-1.14-.7l-.19-.28-3.62-5.42-1.75,4.33c-.56,1.39-1.39,2.08-2.47,2.08-.45,0-.83-.14-1.13-.41-.31-.28-.46-.61-.46-1.01,0-.3.08-.65.25-1.05l.17-.42,6.69-16.48.17-.42c.48-1.17,1.24-1.75,2.3-1.75.44,0,.81.15,1.12.44.31.29.47.64.47,1.05,0,.31-.08.67-.25,1.08l-.17.42-3.98,9.81,3.52-2.61c.73-.54,1.35-.81,1.88-.81.44,0,.8.14,1.09.42.29.28.44.63.44,1.05,0,.7-.39,1.33-1.16,1.91l-.36.27-2.33,1.7Z"/>
    <path class="cls-1" d="m219.12,198.04h.48c1.32,0,1.98.46,1.98,1.39,0,.64-.23,1.13-.7,1.48-.47.35-1.12.53-1.94.53h-1.14l-2.09,5.14h1.75c1.32,0,1.98.46,1.98,1.39,0,.64-.23,1.13-.7,1.48-.46.35-1.11.53-1.95.53h-2.8c-.79,0-1.42-.18-1.88-.55-.46-.36-.7-.86-.7-1.48,0-.38.09-.81.28-1.28l.3-.69,1.84-4.55h-.23c-1.17,0-1.75-.45-1.75-1.36,0-.65.23-1.15.7-1.51.46-.36,1.11-.54,1.95-.54h.72l.83-2.05.17-.42c.49-1.16,1.26-1.73,2.31-1.73.43,0,.79.14,1.1.43.31.29.46.63.46,1.04s-.14.9-.41,1.5l-.58,1.23Z"/>
    <path class="cls-1" d="m231.61,206.59h1.72c1.31,0,1.97.46,1.97,1.38,0,.64-.23,1.13-.7,1.49s-1.12.54-1.94.54h-2c-.9,0-1.51-.35-1.83-1.05-.78.7-1.54,1.05-2.27,1.05h-1.78c-1.15,0-2.07-.41-2.77-1.23-.7-.82-1.05-1.89-1.05-3.21,0-2,.69-3.79,2.07-5.37,1.38-1.58,2.94-2.37,4.68-2.37,1.33,0,2.31.46,2.92,1.39.52-.78,1.2-1.17,2.05-1.17.46,0,.84.15,1.15.44.31.29.46.65.46,1.08,0,.29-.08.64-.25,1.05l-.17.42-2.25,5.56Zm-5.67.08h.39c.85,0,1.42-.35,1.7-1.05l1.09-2.7c.15-.35.22-.65.22-.89,0-.28-.14-.53-.41-.73-.28-.21-.61-.31-.99-.31-.76,0-1.5.44-2.22,1.33-.72.89-1.08,1.8-1.08,2.75,0,1.07.43,1.61,1.3,1.61Z"/>
    <path class="cls-1" d="m240.23,206.59h1.77c1.31,0,1.97.46,1.97,1.39,0,.64-.23,1.13-.7,1.48-.46.35-1.11.53-1.95.53h-2.48c-.92,0-1.64-.19-2.16-.56-.53-.38-.79-.88-.79-1.53,0-.34.11-.78.33-1.31l2.58-6.34.17-.44c.48-1.18,1.25-1.77,2.31-1.77.44,0,.81.15,1.13.44.32.29.48.64.48,1.05,0,.33-.14.84-.42,1.53l-2.23,5.53Zm2.06-13.53c.6,0,1.12.21,1.54.63s.63.94.63,1.54-.21,1.12-.63,1.54-.94.63-1.54.63-1.12-.21-1.54-.63-.63-.93-.63-1.54.21-1.12.63-1.54.93-.63,1.54-.63Z"/>
    <path class="cls-1" d="m248.75,206.59h1.64c1.32,0,1.98.46,1.98,1.39,0,.64-.23,1.13-.7,1.48-.46.35-1.11.53-1.95.53h-2.81c-.77,0-1.38-.18-1.83-.55-.45-.36-.67-.85-.67-1.47,0-.32.15-.86.45-1.61l6.31-15.53.17-.42c.48-1.17,1.24-1.75,2.3-1.75.44,0,.81.15,1.12.44.31.29.46.64.46,1.05,0,.31-.08.67-.23,1.06l-.17.42-6.08,14.95Z"/>
  </g>
</svg>