<?xml version="1.0" encoding="UTF-8"?>
<svg id="Calque_1" data-name="Calque 1" xmlns="http://www.w3.org/2000/svg" viewBox="0 0 112.97 177.61">
  <defs>
    <style>
      .cls-1, .cls-2, .cls-3 {
        fill: #fff;
      }

      .cls-2, .cls-3, .cls-4 {
        stroke: #fff;
        stroke-miterlimit: 10;
      }

      .cls-2, .cls-4 {
        stroke-width: 4px;
      }

      .cls-4 {
        fill: none;
      }
    </style>
  </defs>
  <path class="cls-4" d="m4.18,25.89c33.66.71,68.36-.61,104.68,0l-52.34,87.83L4.18,25.89Z"/>
  <path class="cls-2" d="m56.52,173.72v-60,60Z"/>
  <line class="cls-2" x1="81.52" y1="175.61" x2="31.52" y2="175.61"/>
  <g>
    <path class="cls-3" d="m107.05.26c-14.21,23.18-28.43,46.37-42.64,69.55"/>
    <ellipse class="cls-3" cx="73.46" cy="54.88" rx="9.99" ry="7.72" transform="translate(-11.23 90.04) rotate(-59.31)"/>
  </g>
  <path class="cls-1" d="m38.56,50.86c3.22,0,3.22-5,0-5s-3.22,5,0,5h0Z"/>
  <path class="cls-1" d="m36.69,58.07c2.41,0,2.42-3.75,0-3.75s-2.42,3.75,0,3.75h0Z"/>
  <path class="cls-1" d="m42.1,60.46c1.61,0,1.61-2.5,0-2.5s-1.61,2.5,0,2.5h0Z"/>
  <path class="cls-1" d="m38.01,63.8c.8,0,.81-1.25,0-1.25s-.81,1.25,0,1.25h0Z"/>
</svg>